<svg xmlns="http://www.w3.org/2000/svg" fill="none" viewBox="0 0 112 112"><path fill="#000" d="M49.49 63.66c0 1.7-.04 4.57 1.85 5.83 1.61 1.07 6.74.51 8.26.19 1.9-.41 6.61-2.12 6.9-3.38.3-1.27.57-4.1-.85-6.47-1.4-2.38-2.49-3.12-5.2-3.83-3.12-.81-7.34.54-8.73 1.82-1.38 1.27-2.23 4.13-2.23 5.84m32.45-4.43c-.06 2.53.9 4.78 3.76 5.77 1.53.52 5.2.03 6.5-.34 1.64-.46 5.62-1.76 6.02-2.87s.84-4.04-.21-6.57-3.3-3.8-5.5-4.29c-2.18-.49-5.76 0-7.92 2s-2.59 3.77-2.65 6.3"/><path stroke="#fff" stroke-linecap="round" stroke-width="2" d="M49.49 63.66c0 1.7-.04 4.57 1.85 5.83 1.61 1.07 6.74.51 8.26.19 1.9-.41 6.61-2.12 6.9-3.38.3-1.27.57-4.1-.85-6.47-1.4-2.38-2.49-3.12-5.2-3.83-3.12-.81-7.34.54-8.73 1.82-1.38 1.27-2.23 4.13-2.23 5.84Zm32.45-4.43c-.06 2.53.9 4.78 3.76 5.77 1.53.52 5.2.03 6.5-.34 1.64-.46 5.62-1.76 6.02-2.87s.84-4.04-.21-6.57-3.3-3.8-5.5-4.29c-2.18-.49-5.76 0-7.92 2s-2.59 3.77-2.65 6.3Z"/><path stroke="#fff" stroke-linecap="round" stroke-width="2" d="M.11 111.36c0-1.82.14-7.08 1.07-11.34s2.81-9.8 2.81-9.8-.62-10.99 2.4-18.54c3.4-8.58 9.43-11.4 9.43-11.4m72.44-15.62c-1.2-2.04-5.39-6.9-12.14-7.37-8.43-.58-15.41 6.5-18.9 6.98-3.5.49-12.57-3.96-17.97-3.31-5.3.64-15.06 7.75-20.05 13.05s-4.14 13.16-4.14 13.16M30.3 53.43c2.17-2.48 8.27-7.5 15.35-7.74S57 47.7 58.25 48.85m5.02.08c2.4-1.15 6.62-3.82 12.35-4.27 4.18-.33 8.8-.25 10.62.05m-55.5 20.3c4.76-.97 9.13-4.32 12.08-6.36 2.94-2.03 8.43-6.9 16.4-6.6 6.38.25 10.41 2 11.63 2.85 2.6-2.1 8.38-5.54 15.1-6.85 7.97-1.55 13.58-.38 17.5 4.61M30.42 63.74c5.1-2.62 6.99-5.39 10.37-7.76 3.58-2.5 9.58-5.45 14.2-5.99 7.5-.88 15.9 1.8 15.9 1.8s5.63-4.75 14.77-6.41c7.59-1.39 12.98-.2 17.13 6.46m-98.3 38.3c1.5 1.76 6.24 5.77 13.32 7.72 8.84 2.44 38.69 1.67 47.11 1.67 9 0 21.16-.87 28.63-5.75M92.8 79.5c-2.88.67-8.16 1.74-16.75 1.56-10.84-.23-26.72-5.59-27.4-4.43-.82 1.4 7.85 7.15 12.13 9.17a43 43 0 0 0 19.39 3.85c6.96-.26 13.22-2.07 13.56-3.93.46-2.48-3.54-4.25-5.6-5.21m-30.14 3.2c.63-.3 2.3-.9 3.98-.9 2.1 0 5.28 1.12 7.77 2.55 2.26 1.3 3.3 3.45 7.11 3.43 3.95-.02 5.67-2.19 5.68-3.88 0-1.62-1.74-2.88-2.46-3.62m17.81-8.6a7.5 7.5 0 0 1 .57-4.82c1.08-2.42 5.36-7.04 6.1-8.98m4.11 52.4c0-5.74-3.3-9.93-5.82-11.6-2.5-1.67-7.6-3.9-8.56-5.22-.77-1.05-.23-2.63-.07-3.2M36.66 66.61s3.26-1.83 6.9-3.81c3.73-2.03 6.88-6.87 14.53-7.55 5.78-.51 13.75-.94 13.96 5.39.17 5.17-4.04 7.59-12.67 9.06-7.62 1.3-12.98-.08-16.23-1.22-1.84-.65-6.49-1.87-6.49-1.87Zm35.74-2.84c.42 1.63 11.51 2.12 17.82 1.3 9.52-1.24 15.59-6.82 15.5-8.2s-2.37-8.87-15.93-6.55c-12.36 2.12-16.23 7.33-17.4 9.27a9 9 0 0 0 0 4.18Zm25.29 9.33c-2.08 1.06-6.57 4.4-15.01 4.7-10.3.37-20.6-2.1-24.21-3.08-4.24-1.15-9.05-3.24-11.71-3.09-2 .12-3.38 2.75-3.14 4.6.29 2.24 5.98 8.5 10.9 11.31s13.06 7.9 24.99 7.04c12.84-.93 16.89-4.35 17.86-6.95 1.62-4.34-3.92-8.2-3.92-8.2s4.83-2.27 5.86-2.99c1.34-.95.31-4.34-1.62-3.34Z"/><path fill="#fff" d="M24 4.61c.57.07 1.3 1.73 1.99 4.53.6 2.42 1.28 4.37 1.52 4.32s1.11-1.06 1.95-2.26c1.14-1.63 1.75-2.02 2.43-1.56s.3 1.56-1.56 4.38c-2.98 4.54-3.05 6.95-.1 3.08 1.44-1.87 2.24-2.44 2.87-2.02s.16 1.65-1.64 4.4c-1.72 2.61-2.4 4.37-2.15 5.59.53 2.64 1.77 2.64 2.61 0 1.39-4.34 1.79-4.93 2.84-4.24.75.49.75 1.23.02 3.33-.87 2.48-1 4.72-.26 4.57.17-.03 1-.56 1.85-1.18 1.48-1.06 1.68-1.89 1.93-8.08.04-1.06.53-2.02 1.08-2.13.82-.16 1.03.4 1.16 3.03.14 2.83.26 3.1 1 2.2.45-.57.9-2.61.97-4.55.12-3.16 1.16-5.11 2.31-4.34.24.15.34 1.48.23 2.95-.1 1.46-.06 2.75.1 2.85.15.1 1.67-1.06 3.37-2.58s3.56-2.7 4.13-2.6c1.53.27.8 1.44-2.9 4.63L46.4 21.8l2.6.2c1.43.1 3.03.49 3.57.84 1.68 1.13-.7 1.94-4.68 1.59-3.61-.32-5.81.26-4.86 1.28.27.28 1.01.42 1.65.29 1.5-.3 4.26.96 3.75 1.72-.2.32-2.28.56-4.6.53-3.18-.04-4.6.22-5.72 1.03-2.38 1.71-1.52 2.41 2.31 1.87 2.61-.36 3.6-.23 3.75.5.15.74-.72 1.25-3.27 1.91-3.84 1-4.38 2.33-1.25 3.06 1.49.35 2.57.07 5.28-1.34 3.28-1.7 4.8-1.89 5.05-.6.07.33-1.01 1.2-2.4 1.93-1.37.73-2.45 1.59-2.39 1.9.17.83 2.74.14 6.04-1.62 1.6-.86 3.13-1.42 3.4-1.25.9.6.82 2.1-.14 2.29-.52.1-1.73.67-2.67 1.27l-1.72 1.08 4.05 1.26c1.9.6 3.17 1.03 4 1.4a4 4 0 0 1-1.07.33q-1.01.14-3.15-.39c-1.4-.33-3-.8-4.7-1.3-1.7-.48-3.49-.97-5.2-1.3a21 21 0 0 0-3.54-.4 6 6 0 0 0-2.25-1.16c-2-.58-2.14-.53-1.92.56.06.29.27.72.57 1.2q-1.31.45-2.7 1.11-1.37-.92-1.35.7-.97.51-1.97 1.12c-.6-2.18-2.08-1.33-3.15 1.95l-.05.14q-1.45 1.03-2.86 2.12c.01-.67.33-2.21.78-3.71 1.06-3.57.45-4.46-1.65-2.39-1.03 1.01-1.57 2.73-1.79 5.66q-.15 1.9-.45 3.03-.72.63-1.4 1.27c-.33-.29-.47-1.13-.55-2.93-.14-2.8-.27-3.1-.98-2.22-.45.55-.91 2.5-1.04 4.33-.25 3.8-.85 5.36-1.9 4.97-.66-.24-.8-1.75-.46-5.3.1-1.14-.35-.92-3.12 1.5-5.6 4.87-7.88 4-2.44-.94 1.78-1.6 3.2-3.14 3.14-3.4-.05-.27-1.19-.48-2.53-.46-2.62.03-3.78-.68-3.01-1.83.28-.43 2.11-.6 4.48-.4 5.03.4 7.75-.94 3.16-1.57-1.66-.22-3.11-.84-3.22-1.36-.24-1.2.7-1.37 5.3-.95 3.38.31 3.85.22 5.12-1.04 2.21-2.17 1.45-2.75-2.57-1.94-3.19.63-3.73.56-3.74-.47 0-.94.78-1.42 3.45-2.12 3.77-.98 4.26-1.95 1.33-2.63-1.43-.34-2.53-.11-4.68.95-3.73 1.84-5.42 2.12-5.66.94-.11-.58.71-1.33 2.07-1.88 1.24-.5 2.35-1.17 2.47-1.5.46-1.23-2.02-.86-5.1.77-3.6 1.9-5.78 2.02-4.83.26.32-.58 1.45-1.43 2.53-1.88 2.43-1.01 1.87-1.63-2.79-3.08-2.02-.63-3.72-1.38-3.78-1.67-.28-1.41 1.48-1.52 5.16-.32 2.22.73 4.18 1.3 4.35 1.27s-.18-.98-.76-2.1c-1.46-2.82-1.55-3.69-.41-3.92.62-.12 1.72 1.22 3.01 3.7 2.52 4.78 4.25 5.5 2.74 1.12-.72-2.06-.8-3.03-.26-3.13.88-.18 2.08 1.44 3.86 5.18.81 1.7 1.86 2.78 3.08 3.15 2.8.84 2.83-.19.12-3.44-1.52-1.81-2.23-3.15-1.86-3.5.91-.84 1.93-.23 4.02 2.41 2.2 2.78 3.62 2.47 2.84-.63-.4-1.56-1.44-2.74-3.81-4.3-1.8-1.2-3.32-2.4-3.38-2.7-.29-1.45 1.35-1.44 3.54.02 2.74 1.82 3.1 1.9 2.85.66-.1-.47-1.8-1.92-3.77-3.21-3.6-2.35-4.72-3.92-3.05-4.25.48-.1 1.74.43 2.78 1.18 1.05.74 2.15 1.3 2.46 1.24.3-.06.12-2.24-.4-4.84-.7-3.48-.7-4.7-.05-4.62m9.18 26.34c-1.4-1.32-2.27-1.56-4.24-1.17-2.15.43-2.58.84-3.28 3.13-.8 2.58-.77 2.69.88 4.69 1.5 1.82 2 1.98 4.43 1.5 2.35-.48 2.84-.87 3.5-2.84.95-2.9.86-3.28-1.29-5.3"/><path fill="#fff" stroke="#fff" stroke-width=".5" d="M94.03 18.23c.27-.75.62-1.52.78-1.7.45-.52.99-.18.91.58a6 6 0 0 1-.52 1.64c-.53 1.12-.36 1.25.95.76 1.08-.4 1.36-.36 1.47.16.05.23-.6.63-1.7 1.07l-1.78.7-.85 2.38c-.47 1.3-.8 2.39-.72 2.41.07.03 1.15-.43 2.4-1.03l2.26-1.08.66-1.6c.5-1.21.74-1.55 1.02-1.45.27.1.28.46.07 1.24l-.31 1.1 1.64-.7q2.32-1 1.92.07c-.06.17-.71.59-1.45.93a5 5 0 0 0-1.42.8c-.04.12.39.37.94.57.83.3.97.44.78.77-.2.33-.56.3-1.9-.1l-1.66-.52-2.34 1.11-2.34 1.12 2.61.92 2.61.93 1.4-.9c1.38-.88 2.23-.99 1.96-.24a3.4 3.4 0 0 1-1.1 1.01l-.96.62 1.62.58c1.16.42 1.63.7 1.63.98.02.63-.28.63-1.97.02-.87-.3-1.6-.5-1.63-.41-.03.08.1.58.3 1.11s.3 1.13.23 1.32c-.25.7-.84.07-1.42-1.52l-.6-1.62-2.52-.9-2.52-.9 1.18 2.53 1.19 2.53 1.58.57c1.37.49 1.55.62 1.34.97q-.23.41-1.23.19l-1-.22.66 1.35c.37.74.61 1.49.55 1.66-.27.75-.83.32-1.55-1.17l-.78-1.62-.47 1.06c-.34.76-.59 1.03-.85.94-.29-.1-.25-.52.14-1.8l.52-1.66-1.1-2.3-1.1-2.3-.94 2.29a19 19 0 0 0-.95 2.57c0 .15.41.9.9 1.68.49.76.85 1.5.8 1.63-.2.54-.96.2-1.46-.67a4 4 0 0 0-.71-.99c-.1-.03-.3.4-.44.97-.37 1.46-.95 2.25-1.44 1.96-.3-.18-.3-.6.05-1.87l.45-1.64-1.06.4c-.98.36-1.8.16-1.6-.4.04-.13.79-.46 1.65-.74l1.58-.51.95-2.6.94-2.6-2.35 1.09-2.34 1.1-.66 1.6c-.51 1.24-.75 1.58-1.04 1.48-.26-.1-.28-.47-.06-1.26l.32-1.12-1.63.75c-1.51.7-2.22.67-1.95-.09.06-.17.73-.58 1.48-.93l1.36-.62-.9-.46q-.9-.46-.83-.93c.07-.4.29-.39 1.66.1l1.58.57 2.52-1.2 2.53-1.2-2.52-.9-2.53-.91-1.49.87c-1.46.85-2.3.96-2.06.26.07-.2.53-.58 1.02-.87.49-.28.91-.58.94-.66s-.66-.41-1.52-.72c-1.69-.6-1.92-.8-1.5-1.27.18-.22.71-.14 1.87.28l1.62.58-.34-1.09a3.4 3.4 0 0 1-.2-1.48c.26-.74.85-.12 1.35 1.44l.5 1.58 2.61.95 2.6.94-1.1-2.35-1.09-2.34-1.6-.66c-1.3-.54-1.6-.75-1.54-1.13s.26-.4 1.09-.1c.56.2 1.05.28 1.09.17.03-.11-.22-.8-.58-1.53s-.6-1.47-.54-1.64q.39-1.08 1.53 1.16l.82 1.6.47-1.05c.32-.74.57-1.01.83-.92.3.1.26.52-.14 1.8l-.51 1.66 1.11 2.34 1.12 2.34.89-2.48.9-2.49-.9-1.63c-.7-1.3-.8-1.67-.47-1.83s.56.02 1.13.96l.71 1.16zM69.69 6.7c.27-.33.58-.65.7-.72.32-.18.53.1.35.46a3 3 0 0 1-.56.74c-.46.47-.4.57.35.56.61-.01.75.05.71.34-.01.12-.42.21-1.05.24l-1.03.03-.86 1.05a6 6 0 0 0-.8 1.1c.04.02.67-.02 1.4-.1l1.35-.14.61-.69c.48-.52.66-.65.79-.55.11.1.06.28-.2.64l-.35.5.96-.06q1.35-.09.96.38c-.06.08-.47.17-.9.21s-.83.1-.87.16c-.04.04.13.25.38.45.37.3.41.4.25.53s-.33.06-.94-.4l-.75-.55-1.38.14-1.39.14 1.16.94 1.15.94.87-.2c.86-.2 1.3-.1 1.04.23-.08.1-.41.23-.74.31l-.6.14.72.59c.51.42.7.64.65.79-.1.31-.26.26-1-.35-.39-.31-.73-.54-.76-.5s-.05.31-.04.62c0 .3-.05.62-.12.7-.26.31-.44-.1-.45-1.02l-.01-.92-1.11-.92-1.12-.9.15 1.49.14 1.5.7.56c.6.5.67.6.5.74q-.19.16-.66-.13l-.46-.29.1.8c.04.45.03.87-.03.94q-.42.48-.58-.87l-.1-.96-.43.45q-.44.48-.6.32c-.12-.1-.03-.3.4-.88l.56-.75-.14-1.36-.14-1.36-.9.99c-.49.54-.91 1.05-.94 1.13s.05.53.16 1.01.16.91.11.97c-.2.24-.52-.07-.62-.6a2 2 0 0 0-.18-.63c-.05-.03-.22.15-.4.41-.45.68-.88.97-1.08.74-.12-.15-.04-.36.36-.94l.52-.75h-.6c-.57.02-.95-.23-.75-.48.05-.06.49-.1.98-.08l.89.03.94-1.15.95-1.15-1.38.13-1.4.14-.61.7c-.48.53-.67.66-.8.55-.1-.1-.05-.28.2-.64l.36-.52-.96.1c-.89.07-1.24-.07-.96-.4.06-.08.47-.17.9-.2l.81-.07-.37-.4q-.38-.4-.25-.62c.1-.2.21-.15.82.35l.7.57 1.49-.15 1.5-.16-1.12-.91-1.12-.91-.9.17c-.9.17-1.35.07-1.1-.24.07-.08.37-.2.67-.25.3-.06.57-.14.6-.17.03-.04-.26-.33-.64-.64-.75-.61-.83-.75-.54-.91.14-.08.4.06.9.48l.72.58.02-.61c.01-.34.09-.7.16-.79.27-.33.46.1.43.98l-.02.89 1.14.94 1.15.95-.13-1.38-.13-1.4-.7-.61c-.56-.5-.67-.67-.57-.85s.2-.15.57.15c.24.2.48.32.52.27s.03-.44-.02-.87c-.05-.44-.04-.85.02-.93q.39-.47.57.86l.13.96.42-.45q.43-.46.59-.31c.13.1.03.3-.4.88l-.55.75.14 1.39.14 1.38.9-1.1.9-1.1-.16-.98c-.13-.78-.1-.99.1-1.01s.27.11.4.69l.14.71z"/><circle cx="105.69" cy="82.82" r="2" stroke="#fff" stroke-width="2"/><circle cx="60.96" cy="30.51" r="2" stroke="#fff" stroke-width="2"/><circle cx="72.44" cy="23.75" r="2" stroke="#fff" stroke-width="2"/><circle cx="46.78" cy="7.05" r="2" stroke="#fff" stroke-width="2"/><circle cx="7.8" cy="13.63" r="2" stroke="#fff" stroke-width="2"/></svg>

